# xmcd
#
# Track frame offsets:
#  150
#  18609
#  37454
#  49440
#  60774
#  78813
#  93898
#  114223
#  148975
#  170497
#  188193
#  212098
#  229804
#
# Disc length: 3544 seconds
#
# Revision: 0
# Processed by: cddbd v1.5.1PL2 Copyright (c) Steve Scherf et al.
# Submitted via: Collectorz.com_Music_Collector 6.11
#
DISCID=b20dd60d
DTITLE=Various Artist - Global Rhythm On Disc 1 January 2004
DYEAR=2004
DGENRE=World
TTITLE0=Dungue Fever - Lost In Laos
TTITLE1=Tango-Orkesteri Unto - Avarasylisen Naisen Laula
TTITLE2=Singers From Tomaz/Stajerska - Keri Ce Koline Meti
TTITLE3=Kim Kashkashian/Tigran Mansurian - Hoy, Nazan
TTITLE4=Guadaljarafe - Mi Sonsonete
TTITLE5=Mafalda Arnauth - Eu Venho
TTITLE6=Martyn Bennett - Liberation
TTITLE7=Ottmar Liebert - Sâo Paulo
TTITLE8=Polo Montañez - El Rincón De Mis Ansias
TTITLE9=Turbulence - I'd Rather Be
TTITLE10=Marisela Verena - Nosotros Los Cubanos
TTITLE11=Mar Castro - Besame
TTITLE12=Frank Macchia - The Marine Iguanas Of Fernandina
EXTD=
EXTT0=
EXTT1=
EXTT2=
EXTT3=
EXTT4=
EXTT5=
EXTT6=
EXTT7=
EXTT8=
EXTT9=
EXTT10=
EXTT11=
EXTT12=
PLAYORDER=
